/* XPM */
static char *result[] = {
/* columns rows colors chars-per-pixel */
"50 50 107 2 ",
"   c #954613",
".  c #984815",
"X  c #994916",
"o  c #9B4A16",
"O  c #9D4A16",
"+  c #9D4D1B",
"@  c #A34E17",
"#  c #A54F17",
"$  c #A64F17",
"%  c None",
"&  c #A75018",
"*  c #A95118",
"=  c None",
"-  c None",
";  c #B5581C",
":  c None",
">  c None",
",  c #A35220",
"<  c #A85827",
"1  c #BA5E24",
"2  c #B25B28",
"3  c #B05E2E",
"4  c #BD6938",
"5  c #BC6A3B",
"6  c #C6601F",
"7  c None",
"8  c None",
"9  c #C96426",
"0  c #C0642D",
"q  c #C0652D",
"w  c #C2652D",
"e  c #CD6A2E",
"r  c #CD6B2F",
"t  c None",
"y  c None",
"u  c None",
"i  c None",
"p  c None",
"a  c #CC6D35",
"s  c #C86E3A",
"d  c None",
"f  c #D97030",
"g  c None",
"h  c #DA7031",
"j  c #DA7132",
"k  c #D3733B",
"l  c None",
"z  c #DD773C",
"x  c #DD783D",
"c  c #C47143",
"v  c #C47144",
"b  c #C47244",
"n  c #CC7443",
"m  c #D87740",
"M  c #D17949",
"N  c None",
"B  c #D07D51",
"V  c #D38054",
"C  c #D98050",
"Z  c #DA8253",
"A  c #DA8457",
"S  c #DC8556",
"D  c #DD8557",
"F  c #DB8558",
"G  c None",
"H  c #D9865A",
"J  c None",
"K  c #E8834D",
"L  c None",
"P  c #E9844F",
"I  c #E9854F",
"U  c #EA854F",
"Y  c None",
"T  c None",
"R  c None",
"E  c #E38654",
"W  c #E58959",
"Q  c None",
"!  c #E0895C",
"~  c #E68C5E",
"^  c #E38C60",
"/  c #E58D60",
"(  c None",
")  c #EA9063",
"_  c None",
"`  c #EA9164",
"'  c #EB9165",
"]  c #E69168",
"[  c #E79268",
"{  c #E79269",
"}  c #E89268",
"|  c None",
" . c None",
".. c None",
"X. c #EA9369",
"o. c #EA9469",
"O. c #E9946B",
"+. c #EA956C",
"@. c #EB956C",
"#. c #EB966C",
"$. c None",
"%. c None",
"&. c None",
"*. c None",
"=. c None",
"-. c #ED9870",
";. c None",
/* pixels */
";.;.;.;.;.;.;.;.;.* * * * * * * * * * * * * * * * * * * * * * * * * * * * * & o X ;.;.;.;.;.;.;.;.;.",
";.;.;.;.;.;.;.;.;.* * * * * * * * * * * * * * * * * * * * * * * * * * * * * & o X ;.;.;.;.;.;.;.;.;.",
";.;.;.;.;.;.;.;.;.* * * * * * * * * * * * * * * * * * * * * * * * * * * * * & o X ;.;.;.;.;.;.;.;.;.",
";.;.;.;.;.;.;.;.;.* * * * * * * * * * * * * * * * * * * * * * * * * * * * * & o X ;.;.;.;.;.;.;.;.;.",
";.;.;.;.;.;.;.;.;.* @ . c *.$.&.R u u u u u u u u u u u u u u 8 > N =._ L p $ o X ;.;.;.;.;.;.;.;.;.",
";.;.;.;.;.;.;.;.;.* @ . c *.$.&.R u u u u u u u u u u u u u u 8 > N =._ L p $ o X ;.;.;.;.;.;.;.;.;.",
";.;.;.;.;.;.;.;.;.* @ . c *.$.&.R u u u u u u u u u u u u u u 8 > N =._ L p $ o X ;.;.;.;.;.;.;.;.;.",
";.;.;.;.;.;.;.;.;.* @ . c *.$.&.R u u u u u u u u u u u u u u 8 > N =._ L p $ o X ;.;.;.;.;.;.;.;.;.",
";.;.;.;.;.;.;.;.;.* @ . c *.$.&.R u u u u u u u u u u u u u u 8 > N =._ L p $ o X ;.;.;.;.;.;.;.;.;.",
";.;.;.;.;.;.;.;.;.* @ . c *.$.&.R u u u u u u u u u u u u u u 8 > N =._ L p $ o X ;.;.;.;.;.;.;.;.;.",
";.;.;.;.;.;.;.;.;.* @ . c *.$.&.R u u u u u u u u u u u u u u 8 > N =._ L p $ o X ;.;.;.;.;.;.;.;.;.",
";.;.;.;.;.;.;.;.;.* @ . c *.$.&.R u u u u u u u u u u u u u u 8 > N =._ L p $ o X ;.;.;.;.;.;.;.;.;.",
";.;.;.;.;.;.;.;.;.* @ . c *.$.&.R u u u u u u u u u u u u u u 8 > N =._ L p $ o X ;.;.;.;.;.;.;.;.;.",
";.;.;.;.;.;.;.;.;.* @ . c *.$.&.R u u u u u u u u u u u u u u 8 > N =._ L p $ o X ;.;.;.;.;.;.;.;.;.",
";.;.;.;.;.;.;.;.;.* @ . c *.$.&.R u u u u u u u u u u u u u u 8 > N =._ L p $ o X ;.;.;.;.;.;.;.;.;.",
";.;.;.;.;.;.;.;.;.* @ . c *.$.&.R u u u u u u u u u u u u u u 8 > N =._ L p $ o X ;.;.;.;.;.;.;.;.;.",
";.;.;.;.;.;.;.;.;.* @ . c *.$.&.R u u u u u u u u u u u u u u 8 > N =._ L p $ o X ;.;.;.;.;.;.;.;.;.",
";.;.;.;.;.;.;.;.;.* @ . c *.$.&.R u u u u u u u u u u u u u u 8 > N =._ L p $ o X ;.;.;.;.;.;.;.;.;.",
";.;.;.;.;.;.;.;.;.* @ . c *.$.&.R u u u u u u u u u u u u u u 8 > N =._ L p $ o X ;.;.;.;.;.;.;.;.;.",
";.;.;.;.;.;.;.;.;.* @ . c *.$.&.R u u u u u u u u u u u u u u 8 > N =._ L p $ o X ;.;.;.;.;.;.;.;.;.",
";.;.;.;.;.;.;.;.;.* @ . c *.$.&.R u u u u u u u u u u u u u u 8 > N =._ L p $ o X ;.;.;.;.;.;.;.;.;.",
";.;.;.;.;.;.;.;.;.* @ . c *.$.&.R u u u u u u u u u u u u u u 8 > N =._ L p $ o X ;.;.;.;.;.;.;.;.;.",
";.;.;.;.;.;.;.;.;.* @ . c *.$.&.T u u u u u u u u u u u u u u 7 : N =._ L p $ o X ;.;.;.;.;.;.;.;.;.",
";.;.;.;.;.;.;.;.;.* @ . c *.$.&.T u u u u u u u u u u u u u u 7 : N =._ L p $ o X ;.;.;.;.;.;.;.;.;.",
";.;.;.;.;.;.;.;.;.* @ . c *.$.&.T u u u u u u u u u u u u u u 7 : N =._ L p $ o X ;.;.;.;.;.;.;.;.;.",
";.;.;.;.;.;.;.;.;.* @ . c *.$.&.T u u u u u u u u u u u u u u 7 : N =._ L p $ o X ;.;.;.;.;.;.;.;.;.",
";.;.;.;.;.;.;.;.;.* @ . c *.$.&.T u u u u u u u u u u u u u u 7 : N =._ L p $ o X ;.;.;.;.;.;.;.;.;.",
";.;.;.;.;.;.;.;.;.* @ . c *.$.&.T u u u u u u u u u u u u u u 7 : N =._ L p $ o X ;.;.;.;.;.;.;.;.;.",
";.;.;.;.;.;.;.;.;.* @ . c *.$.&.T u u u u u u u u u u u u u u 7 : N =._ L p $ o X ;.;.;.;.;.;.;.;.;.",
";.;.;.;.;.;.;.;.;.* @ . c *.$.&.T u u u u u u u u u u u u u u 7 : N =._ L p $ o X ;.;.;.;.;.;.;.;.;.",
";.;.;.;.;.;.;.;.;.* @ . c *.$.&.T u u u u u u u u u u u u u u 7 : N =._ L p $ o X ;.;.;.;.;.;.;.;.;.",
";.;.;.;.;.;.;.;.;.* @ . c *.$.&.R u u u u u u u u u u u u u u 8 > N =._ L p $ o X ;.;.;.;.;.;.;.;.;.",
";.;.;.;.;.;.;.;.;.* @ . c *.$.&.R u u u u u u u u u u u u u u 8 > N =._ L p $ o X ;.;.;.;.;.;.;.;.;.",
";.;.;.;.;.;.;.;.;.* @ . c *.$.&.R u u u u u u u u u u u u u u 8 > N =._ L p $ o X ;.;.;.;.;.;.;.;.;.",
";.;.;.;.;.;.;.;.;.* @ . c *.$.&.R u u u u u u u u u u u u u u 8 > N =._ L p $ o X ;.;.;.;.;.;.;.;.;.",
";.;.;.;.;.;.;.;.;.* @ . c *.$.&.R u u u u u u u u u u u u u u 8 > N =._ L p $ o X ;.;.;.;.;.;.;.;.;.",
";.;.;.;.;.;.;.;.;.* @ . c *.$.&.R u u u u u u u u u u u u u u 8 > N =._ L p $ o X ;.;.;.;.;.;.;.;.;.",
";.;.;.;.;.;.;.;.;.* @ . c *.$.&.R u u u u u u u u u u u u u u 8 > N =._ L p $ o X ;.;.;.;.;.;.;.;.;.",
";.;.;.;.;.;.;.;.;.* @ . c *.$.&.R u u u u u u u u u u u u u u 8 > N =._ L p $ o X ;.;.;.;.;.;.;.;.;.",
";.;.;.;.;.;.;.;.;.* @ . c *.$.&.R u u u u u u u u u u u u u u 8 > N =._ L p $ o X ;.;.;.;.;.;.;.;.;.",
";.;.;.;.;.;.;.;.;.* @ . c *.$.&.R u u u u u u u u u u u u u u 8 > N =._ L p $ o X ;.;.;.;.;.;.;.;.;.",
";.;.;.;.;.;.;.;.;.* @ . c *.$.&.R u u u u u u u u u u u u u u 8 > N =._ L p $ o X ;.;.;.;.;.;.;.;.;.",
";.;.;.;.;.;.;.;.;.* @ . c *.$.&.R u u u u u u u u u u u u u u 8 > N =._ L p $ o X ;.;.;.;.;.;.;.;.;.",
";.;.;.;.;.;.;.;.;.* @ . c *.$.&.R u u u u u u u u u u u u u u 8 > N =._ L p $ o X ;.;.;.;.;.;.;.;.;.",
";.;.;.;.;.;.;.;.;.* @ . c *.$.&.T u u u u u u u u u u u u u u 7 : N =._ L p $ o X ;.;.;.;.;.;.;.;.;.",
";.;.;.;.;.;.;.;.;.* @ . c *.$.&.T u u u u u u u u u u u u u u 7 : N =._ L p $ o X ;.;.;.;.;.;.;.;.;.",
";.;.;.;.;.;.;.;.;.* @ . c *.$.&.T u u u u u u u u u u u u u u 7 : N =._ L p $ o X ;.;.;.;.;.;.;.;.;.",
";.;.;.;.;.;.;.;.;.* @ . c *.$.$.$.$.$.$.$.$.$.$.$.$.$.$.$.$.$.$.$.$.%._ L p $ o X ;.;.;.;.;.;.;.;.;.",
";.;.;.;.;.;.;.;.;.* @ . c *.$.$.$.$.$.$.$.$.$.$.$.$.$.$.$.$.$.$.$.$.%._ L p $ o X ;.;.;.;.;.;.;.;.;.",
";.;.;.;.;.;.;.;.;.* @ . c *.$.$.$.$.$.$.$.$.$.$.$.$.$.$.$.$.$.$.$.$.%._ L p $ o X ;.;.;.;.;.;.;.;.;."
};
						   uuuuuuuuuuuuuuuuuuuuuuuuuuuuuuuuuuuuuuuuuuuuu